<svg width="18" height="16" viewBox="0 0 18 16" fill="none" xmlns="http://www.w3.org/2000/svg">
<path d="M17.1453 3.32335C16.3253 1.60622 14.6053 0.49292 12.7453 0.49292C10.8853 0.49292 9.6853 1.26657 8.9853 2.09683C8.2853 1.26657 7.0853 0.49292 5.22527 0.49292C3.36527 0.49292 1.64527 1.60622 0.825267 3.32335C-0.0147331 5.11596 0.345267 7.09722 1.80527 8.64452C5.30527 12.3618 8.4053 14.9848 8.4453 15.0037C8.6053 15.1357 8.7853 15.1924 8.9853 15.1924C9.1853 15.1924 9.3653 15.1357 9.5253 15.0037C9.5653 14.9848 12.6453 12.343 16.1653 8.64452C17.6453 7.09722 18.0053 5.11596 17.1453 3.32335ZM14.9853 7.64453C12.3853 10.3806 10.0253 12.5317 9.0053 13.4186C7.9853 12.5128 5.62527 10.3806 3.02527 7.62566C1.98527 6.51236 1.72527 5.17257 2.30527 3.90831C2.84527 2.75727 4.02527 1.96476 5.24527 1.96476C7.6253 1.96476 8.1653 3.64415 8.2253 3.85171C8.3053 4.19136 8.6253 4.4178 8.9853 4.4178C9.3453 4.4178 9.6653 4.17249 9.7653 3.85171C9.8253 3.66302 10.3653 1.96476 12.7453 1.96476C13.9453 1.96476 15.1253 2.7384 15.6853 3.90831C16.2853 5.19144 16.0253 6.53123 14.9853 7.64453ZM14.7853 5.45563C14.8053 5.81415 14.5253 6.13497 14.1253 6.15384C14.1053 6.15384 14.0853 6.15384 14.0853 6.15384C13.7253 6.15384 13.4053 5.88961 13.3853 5.53108C13.3053 4.45552 12.5653 4.2857 12.4253 4.26683C12.0453 4.21022 11.7853 3.88944 11.8253 3.53092C11.8853 3.1724 12.2453 2.92709 12.6253 2.96483C13.3253 3.05918 14.6653 3.70076 14.7853 5.45563ZM13.8253 6.55C13.9853 6.70096 14.0653 6.88975 14.0653 7.07845C14.0653 7.28601 13.9853 7.47461 13.8253 7.6067C13.6853 7.75766 13.4653 7.83323 13.2653 7.83323C13.0653 7.83323 12.8453 7.75766 12.7053 7.6067C12.5453 7.47461 12.4653 7.26714 12.4653 7.07845C12.4653 6.88975 12.5453 6.68209 12.7053 6.55C12.8453 6.41792 13.0653 6.32366 13.2653 6.32366C13.4653 6.34253 13.6653 6.41792 13.8253 6.55Z" fill="black"/>
</svg>
