<svg width="20" height="12" viewBox="0 0 20 12" fill="none" xmlns="http://www.w3.org/2000/svg">
<path d="M19.1198 1.35999C19.1198 1.33999 19.1198 1.29999 19.1198 1.27999C19.1198 1.25999 19.1198 1.23998 19.1198 1.21998C19.1198 1.19998 19.0998 1.18 19.0998 1.14C19.0998 1.12 19.0798 1.07999 19.0798 1.05999C19.0798 1.03999 19.0598 1.01998 19.0398 0.999976C19.0198 0.979976 19.0198 0.939976 18.9998 0.919976V0.899976C18.9798 0.879976 18.9798 0.879986 18.9598 0.859986C18.9398 0.839986 18.9198 0.819976 18.8998 0.799976C18.8798 0.779976 18.8598 0.759986 18.8398 0.759986C18.8198 0.739986 18.7998 0.719976 18.7798 0.719976C18.7598 0.699976 18.7398 0.699986 18.7198 0.679986C18.6998 0.659986 18.6798 0.659996 18.6598 0.639996C18.6398 0.639996 18.5998 0.619976 18.5798 0.619976C18.5598 0.619976 18.5398 0.599976 18.4998 0.599976C18.4798 0.599976 18.4398 0.599976 18.4198 0.599976C18.3998 0.599976 18.3798 0.599976 18.3598 0.599976H1.55978C1.53978 0.599976 1.5198 0.599976 1.4998 0.599976C1.4798 0.599976 1.43979 0.599976 1.41979 0.599976C1.39979 0.599976 1.37979 0.619976 1.33979 0.619976C1.31979 0.619976 1.27978 0.639996 1.25978 0.639996C1.23978 0.639996 1.2198 0.659986 1.1998 0.679986C1.1798 0.699986 1.15979 0.699976 1.13979 0.719976C1.11979 0.739976 1.0998 0.739986 1.0798 0.759986C1.0598 0.779986 1.03979 0.799976 1.01979 0.799976C0.999795 0.819976 0.979785 0.839986 0.959785 0.859986C0.939785 0.879986 0.939795 0.879976 0.919795 0.899976V0.919976C0.899795 0.939976 0.879805 0.979976 0.879805 0.999976C0.859805 1.01998 0.859795 1.03999 0.839795 1.05999C0.819795 1.07999 0.819795 1.1 0.819795 1.14C0.819795 1.16 0.799805 1.17998 0.799805 1.21998C0.799805 1.23998 0.799805 1.25999 0.799805 1.27999C0.799805 1.29999 0.799805 1.33999 0.799805 1.35999V1.37999V10.58C0.799805 11.02 1.1598 11.38 1.5998 11.38H18.3998C18.8398 11.38 19.1998 11.02 19.1998 10.58L19.1198 1.35999C19.1198 1.37999 19.1198 1.35999 19.1198 1.35999ZM15.8998 2.17999L9.91979 6.62001L3.93979 2.17999H15.8998ZM2.31979 9.78001V2.97999L9.43979 8.26001C9.57979 8.36001 9.73979 8.42001 9.91979 8.42001C10.0998 8.42001 10.2598 8.36001 10.3998 8.26001L17.5198 2.97999V9.78001H2.31979Z" fill="black"/>
</svg>
