<svg width="20" height="16" viewBox="0 0 20 16" fill="none" xmlns="http://www.w3.org/2000/svg">
<path d="M18.9652 3.66281C18.8052 3.51186 18.6052 3.49301 18.4052 3.49301H14.2052V1.22866C14.2052 0.813529 13.8052 0.473877 13.3652 0.473877H6.64517C6.20517 0.473877 5.80518 0.813529 5.80518 1.22866V3.49301H1.60518C1.16518 3.49301 0.805183 3.73831 0.805183 4.15344V14.8147C0.805183 15.2299 1.16518 15.5695 1.60518 15.5695H18.4052C18.8452 15.5695 19.2052 15.2299 19.2052 14.8147V4.19117C19.2052 3.98361 19.1252 3.81377 18.9652 3.66281ZM7.40518 1.98344H12.6052V3.49301H7.40518V1.98344ZM17.6052 5.00257V8.96518H12.0052V8.68214C12.0052 8.36135 11.6852 8.2104 11.3452 8.2104H8.6452C8.3052 8.2104 7.98518 8.38022 7.98518 8.68214V8.96518H2.38518V5.00257H17.6052ZM10.8052 9.34257V9.71996H9.2052V9.34257H10.8052ZM2.40518 14.06V10.0974H8.0052V10.286C8.0052 10.6068 8.3252 10.8521 8.6652 10.8521H11.3652C11.7052 10.8521 12.0252 10.588 12.0252 10.286V10.0974H17.6252V14.06H2.40518Z" fill="black"/>
</svg>
