<svg width="20" height="12" viewBox="0 0 20 12" fill="none" xmlns="http://www.w3.org/2000/svg">
<path d="M19.1198 1.35962C19.1198 1.33962 19.1198 1.29962 19.1198 1.27962C19.1198 1.25962 19.1198 1.23961 19.1198 1.21961C19.1198 1.19961 19.0998 1.17963 19.0998 1.13963C19.0998 1.11963 19.0798 1.07962 19.0798 1.05962C19.0798 1.03962 19.0598 1.01961 19.0398 0.999609C19.0198 0.979609 19.0198 0.93961 18.9998 0.91961V0.89961C18.9798 0.87961 18.9798 0.87962 18.9598 0.85962C18.9398 0.83962 18.9198 0.81961 18.8998 0.79961C18.8798 0.77961 18.8598 0.75962 18.8398 0.75962C18.8198 0.73962 18.7998 0.71961 18.7798 0.71961C18.7598 0.69961 18.7398 0.699619 18.7198 0.679619C18.6998 0.659619 18.6798 0.659629 18.6598 0.639629C18.6398 0.639629 18.5998 0.619609 18.5798 0.619609C18.5598 0.619609 18.5398 0.599609 18.4998 0.599609C18.4798 0.599609 18.4398 0.599609 18.4198 0.599609C18.3998 0.599609 18.3798 0.599609 18.3598 0.599609H1.55978C1.53978 0.599609 1.5198 0.599609 1.4998 0.599609C1.4798 0.599609 1.43979 0.599609 1.41979 0.599609C1.39979 0.599609 1.37979 0.619609 1.33979 0.619609C1.31979 0.619609 1.27978 0.639629 1.25978 0.639629C1.23978 0.639629 1.2198 0.659619 1.1998 0.679619C1.1798 0.699619 1.15979 0.69961 1.13979 0.71961C1.11979 0.73961 1.0998 0.73962 1.0798 0.75962C1.0598 0.77962 1.03979 0.79961 1.01979 0.79961C0.999795 0.81961 0.979785 0.83962 0.959785 0.85962C0.939785 0.87962 0.939795 0.87961 0.919795 0.89961V0.91961C0.899795 0.93961 0.879805 0.979609 0.879805 0.999609C0.859805 1.01961 0.859795 1.03962 0.839795 1.05962C0.819795 1.07962 0.819795 1.09963 0.819795 1.13963C0.819795 1.15963 0.799805 1.17961 0.799805 1.21961C0.799805 1.23961 0.799805 1.25962 0.799805 1.27962C0.799805 1.29962 0.799805 1.33962 0.799805 1.35962V1.37962V10.5796C0.799805 11.0196 1.1598 11.3796 1.5998 11.3796H18.3998C18.8398 11.3796 19.1998 11.0196 19.1998 10.5796L19.1198 1.35962C19.1198 1.37962 19.1198 1.35962 19.1198 1.35962ZM15.8998 2.17962L9.91979 6.61964L3.93979 2.17962H15.8998ZM2.31979 9.77964V2.97962L9.43979 8.25964C9.57979 8.35964 9.73979 8.41964 9.91979 8.41964C10.0998 8.41964 10.2598 8.35964 10.3998 8.25964L17.5198 2.97962V9.77964H2.31979Z" fill="white"/>
</svg>
