<svg width="18" height="18" viewBox="0 0 18 18" fill="none" xmlns="http://www.w3.org/2000/svg">
<path d="M16.7963 2.85864C16.7779 2.8403 16.7779 2.84031 16.7596 2.82198L14.7979 1.09862C14.5229 0.841952 14.1379 0.713637 13.7346 0.750304C13.3679 0.78697 13.0379 0.933619 12.7813 1.19029C12.7629 1.20862 12.7446 1.22696 12.7263 1.24529L10.7829 3.68364C10.2696 4.23364 10.2879 5.07697 10.8196 5.60864C10.8563 5.6453 10.8929 5.68197 10.9296 5.7003L11.9196 6.36032C11.8463 6.70866 11.3329 7.69863 9.51792 9.51363C7.70292 11.3286 6.7129 11.842 6.36456 11.9153L5.70456 10.9253C5.68623 10.8886 5.64956 10.852 5.6129 10.8153C5.08123 10.2836 4.2379 10.2836 3.6879 10.7786L1.24956 12.722C1.23123 12.7403 1.21291 12.7586 1.19457 12.777C0.644572 13.327 0.607905 14.2436 1.1029 14.7753L2.82623 16.737C2.84456 16.7553 2.84456 16.7553 2.8629 16.7736C3.1929 17.1036 3.70623 17.232 4.27456 17.232C5.2829 17.232 6.4379 16.8286 7.0429 16.5903C8.21626 16.132 10.5079 15.0136 12.7813 12.7403C14.4679 11.0536 15.8246 9.01863 16.6313 7.00199C16.9796 6.08532 17.7496 3.81197 16.7963 2.85864ZM11.7363 11.732C8.34459 15.1236 4.53123 16.0586 3.88956 15.7286L2.22123 13.822L4.60456 11.9336L5.24623 12.9053C5.26456 12.9236 5.26456 12.942 5.2829 12.9603C5.5029 13.2353 5.81456 13.382 6.18123 13.4003C6.52956 13.4186 7.61126 13.4736 10.5263 10.5586C11.2413 9.84363 13.4413 7.64363 13.3679 6.21365C13.3496 5.84698 13.1846 5.53528 12.9279 5.31529C12.9096 5.29695 12.8913 5.27863 12.8729 5.27863L11.9013 4.63696L13.7896 2.25363L15.6963 3.92198C16.0629 4.52698 15.1279 8.34029 11.7363 11.732Z" fill="white"/>
</svg>
