<svg width="18" height="18" viewBox="0 0 18 18" fill="none" xmlns="http://www.w3.org/2000/svg">
<path d="M16.7963 2.85833C16.7779 2.84 16.7779 2.84001 16.7596 2.82167L14.7979 1.09831C14.5229 0.841647 14.1379 0.713332 13.7346 0.749998C13.3679 0.786665 13.0379 0.933313 12.7813 1.18998C12.7629 1.20831 12.7446 1.22666 12.7263 1.24499L10.7829 3.68333C10.2696 4.23333 10.2879 5.07666 10.8196 5.60833C10.8563 5.645 10.8929 5.68166 10.9296 5.7L11.9196 6.36002C11.8463 6.70835 11.3329 7.69832 9.51792 9.51332C7.70292 11.3283 6.7129 11.8417 6.36456 11.915L5.70456 10.925C5.68623 10.8883 5.64956 10.8517 5.6129 10.815C5.08123 10.2833 4.2379 10.2833 3.6879 10.7783L1.24956 12.7217C1.23123 12.74 1.21291 12.7583 1.19457 12.7767C0.644572 13.3267 0.607905 14.2433 1.1029 14.775L2.82623 16.7367C2.84456 16.755 2.84456 16.755 2.8629 16.7733C3.1929 17.1033 3.70623 17.2317 4.27456 17.2317C5.2829 17.2317 6.4379 16.8283 7.0429 16.59C8.21626 16.1317 10.5079 15.0133 12.7813 12.74C14.4679 11.0533 15.8246 9.01832 16.6313 7.00168C16.9796 6.08502 17.7496 3.81167 16.7963 2.85833ZM11.7363 11.7317C8.34459 15.1233 4.53123 16.0583 3.88956 15.7283L2.22123 13.8217L4.60456 11.9333L5.24623 12.905C5.26456 12.9233 5.26456 12.9417 5.2829 12.96C5.5029 13.235 5.81456 13.3817 6.18123 13.4C6.52956 13.4183 7.61126 13.4733 10.5263 10.5583C11.2413 9.84332 13.4413 7.64332 13.3679 6.21334C13.3496 5.84667 13.1846 5.53498 12.9279 5.31498C12.9096 5.29665 12.8913 5.27832 12.8729 5.27832L11.9013 4.63666L13.7896 2.25332L15.6963 3.92167C16.0629 4.52667 15.1279 8.33999 11.7363 11.7317Z" fill="black"/>
</svg>
