<svg width="17" height="12" viewBox="0 0 17 12" fill="none" xmlns="http://www.w3.org/2000/svg">
<path d="M16.0791 6.56L11.0388 11.56C10.8768 11.72 10.6744 11.8 10.472 11.8C10.2696 11.8 10.0671 11.72 9.90519 11.56C9.58131 11.24 9.58131 10.74 9.90519 10.42L13.569 6.78H1.74755C1.30222 6.78 0.937859 6.42 0.937859 5.98C0.937859 5.54 1.30222 5.18 1.74755 5.18H13.569L9.90519 1.54004C9.58131 1.22004 9.58131 0.720034 9.90519 0.400034C10.2291 0.0800342 10.7351 0.0800342 11.059 0.400034L16.0993 5.4C16.4029 5.74 16.4029 6.26 16.0791 6.56Z" fill="white"/>
</svg>
