<svg width="17" height="12" viewBox="0 0 17 12" fill="none" xmlns="http://www.w3.org/2000/svg">
<path d="M16.315 6C16.315 6.44 15.9507 6.8 15.5053 6.8H3.68384L7.34771 10.44C7.67159 10.76 7.67159 11.26 7.34771 11.58C7.18577 11.74 6.98335 11.82 6.78093 11.82C6.57848 11.82 6.35581 11.74 6.21412 11.58L1.17381 6.58C0.849939 6.26 0.849939 5.76 1.17381 5.46L6.21412 0.459971C6.53799 0.139971 7.04408 0.139971 7.36795 0.459971C7.69183 0.779971 7.69183 1.27997 7.36795 1.59997L3.68384 5.2H15.5053C15.9507 5.2 16.315 5.56 16.315 6Z" fill="white"/>
</svg>
